<svg width="40" height="40" viewBox="0 0 40 40" fill="none" xmlns="http://www.w3.org/2000/svg">
<g id="017-heart">
<g id="Group">
<g id="Group_2">
<path id="Vector" d="M36.483 5.56868C34.4656 3.52923 31.7404 2.40173 28.8092 2.39345C25.7923 2.38337 22.7688 3.52649 20.3464 5.5586C17.5913 3.13243 15.0991 1.94946 12.7523 1.94946C9.47483 1.94946 6.43398 3.24032 4.21062 5.56368C2.53952 7.23478 1.39452 9.42884 0.898193 11.9091C0.749599 12.6545 1.23257 13.3792 1.97804 13.5284C2.72257 13.6761 3.44819 13.194 3.59733 12.4485C3.98632 10.5031 4.87116 8.79532 6.17765 7.48845C7.8978 5.69118 10.2331 4.70173 12.7524 4.70173C14.5776 4.70173 16.7887 5.93157 19.3006 8.3329C19.5823 8.61595 19.9524 8.77235 20.3428 8.77282C20.3433 8.77282 20.3442 8.77282 20.3446 8.77282C20.7341 8.77282 21.1042 8.61735 21.3863 8.33524C23.4143 6.30728 26.1069 5.14579 28.7767 5.14579C28.7855 5.14579 28.7937 5.14579 28.8019 5.14579C31.0267 5.15173 33.0066 5.96782 34.5111 7.48845C36.2762 9.33204 37.2483 11.7467 37.2483 14.2889C37.2483 16.833 36.2542 19.3077 34.5487 21.0517L20.3669 34.7609L9.12155 23.8957C8.57522 23.3677 7.70413 23.3838 7.17569 23.9288C6.64773 24.4756 6.66288 25.3467 7.20921 25.8746L19.411 37.6636C19.6775 37.9214 20.0225 38.0503 20.3669 38.0503C20.7114 38.0503 21.0564 37.9214 21.3234 37.6641L36.4885 23.0035C38.7202 20.7224 40 17.5462 40 14.2888C40 11.0342 38.7564 7.94298 36.483 5.56868Z" fill="#129820"/>
</g>
</g>
<g id="Group_3">
<g id="Group_4">
<path id="Vector_2" d="M37.523 17.4543H26.422C26.0431 17.4543 25.6816 17.6098 25.422 17.885L21.2491 22.2974L16.4427 11.3947C16.2362 10.9263 15.7867 10.6112 15.2762 10.5768C14.7684 10.5442 14.278 10.7942 14.0105 11.2305L10.1931 17.4543H1.37617C0.616016 17.4543 0 18.0703 0 18.8305C0 19.5906 0.616016 20.2067 1.37617 20.2067H10.9629C11.4413 20.2067 11.8859 19.9581 12.1359 19.5498L14.9836 14.9076L19.5666 25.303C19.7524 25.725 20.1373 26.0255 20.5914 26.1039C20.6694 26.1172 20.7478 26.1241 20.8258 26.1241C21.201 26.1241 21.5638 25.9709 21.8258 25.6938L27.0148 20.2066H37.523C38.2831 20.2066 38.8992 19.5905 38.8992 18.8304C38.8991 18.0703 38.283 17.4543 37.523 17.4543Z" fill="#129820"/>
</g>
</g>
</g>
</svg>
