<svg width="40" height="40" viewBox="0 0 40 40" fill="none" xmlns="http://www.w3.org/2000/svg">
<g id="012-medicine">
<g id="Group">
<g id="Group_2">
<path id="Vector" d="M29.2905 0H10.755C9.99669 0 9.38208 0.614609 9.38208 1.37297V8.10063C9.38208 8.85898 9.99669 9.47359 10.755 9.47359H29.2905C30.0489 9.47359 30.6635 8.85898 30.6635 8.10063V1.37297C30.6635 0.614609 30.0489 0 29.2905 0ZM27.9175 6.72766H12.128V2.74602H27.9175V6.72766H27.9175Z" fill="#F89603"/>
</g>
</g>
<g id="Group_3">
<g id="Group_4">
<path id="Vector_2" d="M27.3227 8.14673H24.5767V14.4625H27.3227V8.14673Z" fill="#F89603"/>
</g>
</g>
<g id="Group_5">
<g id="Group_6">
<path id="Vector_3" d="M15.4233 8.14673H12.6772V14.4625H15.4233V8.14673Z" fill="#F89603"/>
</g>
</g>
<g id="Group_7">
<g id="Group_8">
<path id="Vector_4" d="M29.9772 13.0891H10.023C8.76118 13.0891 7.73462 14.1157 7.73462 15.3775V37.7115C7.73462 38.9733 8.76118 39.9999 10.023 39.9999H29.9772C31.239 39.9999 32.2656 38.9733 32.2656 37.7115V15.3775C32.2656 14.1157 31.239 13.0891 29.9772 13.0891ZM29.5195 37.2539H10.4806V15.8351H29.5195V37.2539Z" fill="#F89603"/>
</g>
</g>
<g id="Group_9">
<g id="Group_10">
<path id="Vector_5" d="M19.9999 20.2744C19.2416 20.2744 18.627 20.889 18.627 21.6474V31.4414C18.627 32.1998 19.2416 32.8144 19.9999 32.8144C20.7583 32.8144 21.3729 32.1998 21.3729 31.4414V21.6474C21.3729 20.889 20.7583 20.2744 19.9999 20.2744Z" fill="#F89603"/>
</g>
</g>
<g id="Group_11">
<g id="Group_12">
<path id="Vector_6" d="M24.897 25.1716H15.1029C14.3446 25.1716 13.73 25.7862 13.73 26.5446C13.73 27.303 14.3446 27.9176 15.1029 27.9176H24.897C25.6558 27.9176 26.27 27.303 26.27 26.5446C26.27 25.7862 25.6554 25.1716 24.897 25.1716Z" fill="#F89603"/>
</g>
</g>
</g>
</svg>
