<svg width="14" height="20" viewBox="0 0 14 20" fill="none" xmlns="http://www.w3.org/2000/svg">
<path fill-rule="evenodd" clip-rule="evenodd" d="M0 2.5C0 1.11929 1.04467 0 2.33333 0H7.68342C8.30226 0 8.89575 0.263392 9.33333 0.732233L13.3166 5C13.7542 5.46884 14 6.10473 14 6.76777V17.5C14 18.8807 12.9553 20 11.6667 20H2.33333C1.04467 20 0 18.8807 0 17.5V2.5ZM2.33333 10C2.33333 9.30964 2.85567 8.75 3.5 8.75H10.5C11.1443 8.75 11.6667 9.30964 11.6667 10C11.6667 10.6904 11.1443 11.25 10.5 11.25H3.5C2.85567 11.25 2.33333 10.6904 2.33333 10ZM3.5 13.75C2.85567 13.75 2.33333 14.3096 2.33333 15C2.33333 15.6904 2.85567 16.25 3.5 16.25H10.5C11.1443 16.25 11.6667 15.6904 11.6667 15C11.6667 14.3096 11.1443 13.75 10.5 13.75H3.5Z" fill="#0B8FAC"/>
</svg>
