<svg width="18" height="16" viewBox="0 0 18 16" fill="none" xmlns="http://www.w3.org/2000/svg">
<path fill-rule="evenodd" clip-rule="evenodd" d="M4.03198 0.888672H13.968V4.08867H4.03198V0.888672ZM3.20397 4.88889H14.796C16.1705 4.88889 17.28 5.96089 17.28 7.28889V12.0889H13.968V15.2889H4.03197V12.0889H0.719971V7.28889C0.719971 5.96089 1.82949 4.88889 3.20397 4.88889ZM5.68802 13.689H12.312V9.68896H5.68802V13.689ZM14.796 8.08877C14.3406 8.08877 13.968 7.72877 13.968 7.28877C13.968 6.84877 14.3406 6.48877 14.796 6.48877C15.2514 6.48877 15.624 6.84877 15.624 7.28877C15.624 7.72877 15.2514 8.08877 14.796 8.08877Z" fill="#13375B"/>
</svg>
