<svg width="32" height="32" viewBox="0 0 32 32" fill="none" xmlns="http://www.w3.org/2000/svg">
<g id="Medinova ">
<circle id="Ellipse 1" cx="15.8402" cy="15.8402" r="15.8402" fill="#0B8FAC"/>
<g id="Group 1">
<g id="Vector">
<path d="M25.9412 14.0493C26.3956 14.2101 26.6332 14.7078 26.4724 15.1622L26.4742 15.161L25.3321 18.3953C25.1205 18.9923 24.7236 19.5067 24.2003 19.8619L18.4162 23.7872C18.0968 24.0039 17.6636 23.921 17.4468 23.6016L16.663 22.4466C16.4462 22.1271 16.5291 21.6939 16.8486 21.4771L17.5127 21.0264L17.8821 19.8268C18.0701 19.2222 18.4578 18.6981 18.9829 18.3417L21.8398 16.403C22.1592 16.1862 22.5924 16.2692 22.8092 16.5886C23.026 16.908 22.943 17.3412 22.6236 17.558L21.1798 18.5378C21.021 18.6456 20.9793 18.8637 21.087 19.0225C21.1948 19.1813 21.4129 19.2231 21.5717 19.1153L23.7482 17.6383L24.8282 14.5805C24.989 14.1261 25.4867 13.8885 25.9412 14.0493Z" fill="white"/>
<path d="M5.45553 14.0493C5.00111 14.2101 4.76351 14.7078 4.9243 15.1622L4.9225 15.161L6.06457 18.3953C6.27622 18.9923 6.67305 19.5067 7.19641 19.8619L12.9805 23.7872C13.2999 24.0039 13.7331 23.921 13.9499 23.6016L14.7337 22.4466C14.9505 22.1271 14.8675 21.6939 14.5481 21.4771L13.884 21.0264L13.5146 19.8268C13.3266 19.2222 12.9389 18.6981 12.4137 18.3417L9.55691 16.403C9.23748 16.1862 8.80427 16.2692 8.5875 16.5886C8.37072 16.908 8.45366 17.3412 8.77309 17.558L10.2168 18.5378C10.3757 18.6456 10.4174 18.8637 10.3096 19.0225C10.2019 19.1813 9.98375 19.2231 9.82493 19.1153L7.64847 17.6383L6.56845 14.5805C6.40766 14.1261 5.90994 13.8885 5.45553 14.0493Z" fill="white"/>
</g>
<path id="Subtract" fill-rule="evenodd" clip-rule="evenodd" d="M20.2811 8.99411C20.6049 9.32907 20.8639 9.72759 21.0435 10.1674C21.2297 10.625 21.3249 11.1111 21.3235 11.6113C21.3235 12.0831 21.2324 12.5748 21.0515 13.075C20.9015 13.493 20.6831 13.9266 20.4057 14.3644C19.9662 15.0573 19.3619 15.78 18.6116 16.5125C17.3668 17.7269 16.1367 18.5643 16.0845 18.5997L15.7669 18.8151C15.6262 18.91 15.4453 18.91 15.3047 18.8151L14.9871 18.5997C14.9348 18.5657 13.7035 17.7269 12.46 16.5125C11.7097 15.78 11.1054 15.0573 10.6659 14.3644C10.3885 13.9266 10.1715 13.493 10.02 13.075C9.83916 12.5748 9.74805 12.0831 9.74805 11.6113C9.74805 11.1111 9.84318 10.625 10.0294 10.1674C10.2085 9.7273 10.4676 9.32869 10.7918 8.99411C11.1174 8.65688 11.4966 8.3919 11.9174 8.2077C12.3528 8.01641 12.8138 7.92005 13.2894 7.92005C13.95 7.92005 14.5945 8.11134 15.1546 8.47267C15.2886 8.55911 15.4159 8.65404 15.5365 8.75748C15.6571 8.65404 15.7843 8.55911 15.9183 8.47267C16.4784 8.11134 17.1229 7.92005 17.7835 7.92005C18.2543 7.91891 18.7207 8.01668 19.1556 8.2077C19.5749 8.39118 19.957 8.65816 20.2811 8.99411ZM15.417 13.6785V15.0857H16.1154V13.6785H17.5225V12.9802H16.1154V11.5756H15.417V12.9802H14.0125V13.6785H15.417Z" fill="white"/>
</g>
</g>
</svg>
