<svg width="16" height="16" viewBox="0 0 16 16" fill="none" xmlns="http://www.w3.org/2000/svg">
<g id="Icon">
<path fill-rule="evenodd" clip-rule="evenodd" d="M0 1.14286C0 0.511675 0.511675 0 1.14286 0H4.57143C5.20261 0 5.71429 0.511675 5.71429 1.14286V4.57143C5.71429 5.20261 5.20261 5.71429 4.57143 5.71429H1.14286C0.511675 5.71429 0 5.20261 0 4.57143V1.14286ZM2.28571 3.42857V2.28571H3.42857V3.42857H2.28571Z" fill="white"/>
<path fill-rule="evenodd" clip-rule="evenodd" d="M0 11.4286C0 10.7974 0.511675 10.2857 1.14286 10.2857H4.57143C5.20261 10.2857 5.71429 10.7974 5.71429 11.4286V14.8571C5.71429 15.4883 5.20261 16 4.57143 16H1.14286C0.511675 16 0 15.4883 0 14.8571V11.4286ZM2.28571 13.7143V12.5714H3.42857V13.7143H2.28571Z" fill="white"/>
<path fill-rule="evenodd" clip-rule="evenodd" d="M11.4286 0C10.7974 0 10.2857 0.511675 10.2857 1.14286V4.57143C10.2857 5.20261 10.7974 5.71429 11.4286 5.71429H14.8571C15.4883 5.71429 16 5.20261 16 4.57143V1.14286C16 0.511675 15.4883 0 14.8571 0H11.4286ZM12.5714 2.28571V3.42857H13.7143V2.28571H12.5714Z" fill="white"/>
<path d="M9.14286 1.14286C9.14286 0.511675 8.63118 0 8 0C7.36882 0 6.85714 0.511675 6.85714 1.14286V2.28571C6.85714 2.9169 7.36882 3.42857 8 3.42857C8.63118 3.42857 9.14286 2.9169 9.14286 2.28571V1.14286Z" fill="white"/>
<path d="M8 4.57143C8.63118 4.57143 9.14286 5.0831 9.14286 5.71429V6.85714H11.4286C12.0598 6.85714 12.5714 7.36882 12.5714 8C12.5714 8.63118 12.0598 9.14286 11.4286 9.14286H8C7.36882 9.14286 6.85714 8.63118 6.85714 8V5.71429C6.85714 5.0831 7.36882 4.57143 8 4.57143Z" fill="white"/>
<path d="M14.8571 6.85714C14.226 6.85714 13.7143 7.36882 13.7143 8C13.7143 8.63118 14.226 9.14286 14.8571 9.14286C15.4883 9.14286 16 8.63118 16 8C16 7.36882 15.4883 6.85714 14.8571 6.85714Z" fill="white"/>
<path d="M6.85714 11.4286C6.85714 10.7974 7.36882 10.2857 8 10.2857H9.14286C9.77404 10.2857 10.2857 10.7974 10.2857 11.4286C10.2857 12.0598 9.77404 12.5714 9.14286 12.5714V14.8571C9.14286 15.4883 8.63118 16 8 16C7.36882 16 6.85714 15.4883 6.85714 14.8571V11.4286Z" fill="white"/>
<path d="M4.57143 9.14286C5.20261 9.14286 5.71429 8.63118 5.71429 8C5.71429 7.36882 5.20261 6.85714 4.57143 6.85714H1.14286C0.511675 6.85714 0 7.36882 0 8C0 8.63118 0.511675 9.14286 1.14286 9.14286H4.57143Z" fill="white"/>
<path d="M16 11.4286C16 12.0598 15.4883 12.5714 14.8571 12.5714H12.5714C11.9402 12.5714 11.4286 12.0598 11.4286 11.4286C11.4286 10.7974 11.9402 10.2857 12.5714 10.2857H14.8571C15.4883 10.2857 16 10.7974 16 11.4286Z" fill="white"/>
<path d="M14.8571 16C15.4883 16 16 15.4883 16 14.8571C16 14.226 15.4883 13.7143 14.8571 13.7143H11.4286C10.7974 13.7143 10.2857 14.226 10.2857 14.8571C10.2857 15.4883 10.7974 16 11.4286 16H14.8571Z" fill="white"/>
</g>
</svg>
