<svg width="39" height="39" viewBox="0 0 39 39" fill="none" xmlns="http://www.w3.org/2000/svg">
<g id="Frame 1000003391">
<rect width="39" height="39" rx="5" fill="#0B8FAC"/>
<path id="Union" fill-rule="evenodd" clip-rule="evenodd" d="M25.1764 23.7392C27.8126 20.403 27.5906 15.5469 24.5104 12.4666C21.191 9.14719 15.809 9.14719 12.4896 12.4666C9.17014 15.7861 9.17014 21.168 12.4896 24.4875C15.5698 27.5677 20.4259 27.7897 23.7621 25.1534L27.3388 28.7301C27.7294 29.1206 28.3625 29.1206 28.753 28.7301C29.1436 28.3396 29.1436 27.7064 28.753 27.3159L25.1764 23.7392ZM23.0962 13.8809C25.6346 16.4193 25.6346 20.5348 23.0962 23.0732C20.5578 25.6117 16.4422 25.6117 13.9038 23.0732C11.3654 20.5348 11.3654 16.4193 13.9038 13.8809C16.4422 11.3424 20.5578 11.3424 23.0962 13.8809Z" fill="white"/>
</g>
</svg>
