<svg width="20" height="16" viewBox="0 0 20 16" fill="none" xmlns="http://www.w3.org/2000/svg">
<path id="Icon" fill-rule="evenodd" clip-rule="evenodd" d="M2.5 0.5C1.11929 0.5 0 1.61929 0 3V13C0 14.3807 1.11929 15.5 2.5 15.5H17.5C18.8807 15.5 20 14.3807 20 13V5.5C20 4.11929 18.8807 3 17.5 3H11.25L8.75 0.5H2.5ZM11.25 6.75C11.25 6.05964 10.6904 5.5 10 5.5C9.30964 5.5 8.75 6.05964 8.75 6.75V8H7.5C6.80964 8 6.25 8.55964 6.25 9.25C6.25 9.94036 6.80964 10.5 7.5 10.5H8.75V11.75C8.75 12.4404 9.30964 13 10 13C10.6904 13 11.25 12.4404 11.25 11.75V10.5H12.5C13.1904 10.5 13.75 9.94036 13.75 9.25C13.75 8.55964 13.1904 8 12.5 8H11.25V6.75Z" fill="#0B8FAC"/>
</svg>
