<svg width="922" height="533" viewBox="0 0 922 533" fill="none" xmlns="http://www.w3.org/2000/svg">
<circle cx="461" cy="204.5" r="204.049" fill="#0B8FAC"/>
<path d="M591.117 181.431C596.971 183.502 600.032 189.914 597.96 195.767L597.983 195.752L583.271 237.415C580.545 245.105 575.433 251.732 568.691 256.307L494.183 306.872C490.068 309.664 484.487 308.596 481.695 304.481L471.598 289.602C468.805 285.487 469.874 279.907 473.989 277.115L482.544 271.309L487.302 255.856C489.724 248.067 494.718 241.316 501.483 236.725L538.284 211.751C542.399 208.958 547.979 210.027 550.772 214.141C553.564 218.256 552.496 223.837 548.381 226.629L529.783 239.251C527.737 240.639 527.199 243.449 528.588 245.494C529.976 247.54 532.786 248.078 534.831 246.69L562.868 227.663L576.781 188.274C578.852 182.42 585.263 179.36 591.117 181.431Z" fill="white"/>
<path d="M327.226 181.431C321.373 183.502 318.312 189.914 320.383 195.767L320.36 195.752L335.072 237.415C337.798 245.105 342.91 251.732 349.652 256.307L424.161 306.872C428.276 309.664 433.856 308.596 436.648 304.481L446.746 289.602C449.538 285.487 448.47 279.907 444.355 277.114L435.8 271.309L431.041 255.856C428.619 248.067 423.625 241.316 416.86 236.725L380.059 211.751C375.944 208.958 370.364 210.027 367.572 214.141C364.779 218.256 365.847 223.837 369.962 226.629L388.56 239.251C390.606 240.639 391.144 243.449 389.756 245.494C388.367 247.54 385.558 248.078 383.512 246.69L355.475 227.663L341.563 188.274C339.491 182.42 333.08 179.36 327.226 181.431Z" fill="white"/>
<path fill-rule="evenodd" clip-rule="evenodd" d="M518.204 116.311C522.376 120.626 525.712 125.76 528.025 131.425C530.425 137.321 531.65 143.581 531.633 150.025C531.633 156.103 530.459 162.437 528.129 168.88C526.196 174.265 523.382 179.85 519.809 185.49C514.148 194.416 506.364 203.725 496.698 213.162C480.663 228.805 464.818 239.592 464.145 240.049L460.054 242.823C458.242 244.046 455.911 244.046 454.099 242.823L450.008 240.049C449.335 239.61 433.473 228.805 417.455 213.162C407.789 203.725 400.005 194.416 394.343 185.49C390.771 179.85 387.974 174.265 386.024 168.88C383.694 162.437 382.52 156.103 382.52 150.025C382.52 143.581 383.746 137.321 386.145 131.425C388.452 125.756 391.789 120.621 395.966 116.311C400.16 111.967 405.045 108.554 410.465 106.181C416.074 103.717 422.012 102.476 428.139 102.476C436.649 102.476 444.951 104.94 452.166 109.594C453.892 110.708 455.532 111.931 457.085 113.263C458.638 111.931 460.278 110.708 462.004 109.594C469.219 104.94 477.521 102.476 486.031 102.476C492.096 102.461 498.104 103.72 503.705 106.181C509.107 108.544 514.029 111.984 518.204 116.311ZM455.55 176.653V194.779H464.546V176.653H482.672V167.656H464.546V149.564H455.55V167.656H437.457V176.653H455.55Z" fill="white"/>
<path d="M303.75 505V453.9H317.33L330.14 484.42H331.4L344.14 453.9H357.93V505H348.06V461.39L349.32 461.53L335.53 494.57H325.38L311.52 461.53L312.85 461.39V505H303.75ZM386.777 506.33C383.511 506.33 380.641 505.77 378.167 504.65C375.741 503.53 373.711 502.037 372.077 500.17C370.491 498.257 369.277 496.133 368.437 493.8C367.644 491.467 367.247 489.087 367.247 486.66V485.33C367.247 482.81 367.644 480.383 368.437 478.05C369.277 475.67 370.491 473.57 372.077 471.75C373.711 469.883 375.717 468.413 378.097 467.34C380.477 466.22 383.231 465.66 386.357 465.66C390.464 465.66 393.894 466.57 396.647 468.39C399.447 470.163 401.547 472.52 402.947 475.46C404.347 478.353 405.047 481.48 405.047 484.84V488.34H371.377V482.39H398.957L395.947 485.33C395.947 482.903 395.597 480.827 394.897 479.1C394.197 477.373 393.124 476.043 391.677 475.11C390.277 474.177 388.504 473.71 386.357 473.71C384.211 473.71 382.391 474.2 380.897 475.18C379.404 476.16 378.261 477.583 377.467 479.45C376.721 481.27 376.347 483.463 376.347 486.03C376.347 488.41 376.721 490.533 377.467 492.4C378.214 494.22 379.357 495.667 380.897 496.74C382.437 497.767 384.397 498.28 386.777 498.28C389.157 498.28 391.094 497.813 392.587 496.88C394.081 495.9 395.037 494.71 395.457 493.31H404.417C403.857 495.923 402.784 498.21 401.197 500.17C399.611 502.13 397.581 503.647 395.107 504.72C392.681 505.793 389.904 506.33 386.777 506.33ZM428.926 506.26C426.266 506.26 423.816 505.77 421.576 504.79C419.336 503.81 417.399 502.433 415.766 500.66C414.132 498.887 412.872 496.833 411.986 494.5C411.099 492.12 410.656 489.553 410.656 486.8V485.33C410.656 482.623 411.076 480.08 411.916 477.7C412.802 475.32 414.016 473.243 415.556 471.47C417.142 469.697 419.032 468.32 421.226 467.34C423.466 466.313 425.939 465.8 428.646 465.8C431.632 465.8 434.246 466.453 436.486 467.76C438.772 469.02 440.592 470.933 441.946 473.5C443.299 476.067 444.046 479.287 444.186 483.16L441.316 479.8V453.9H451.046V505H443.346V488.83H445.026C444.886 492.703 444.092 495.947 442.646 498.56C441.199 501.127 439.286 503.063 436.906 504.37C434.572 505.63 431.912 506.26 428.926 506.26ZM431.096 498.07C433.009 498.07 434.759 497.65 436.346 496.81C437.932 495.923 439.192 494.663 440.126 493.03C441.106 491.35 441.596 489.39 441.596 487.15V484.35C441.596 482.11 441.106 480.243 440.126 478.75C439.146 477.21 437.862 476.043 436.276 475.25C434.689 474.41 432.962 473.99 431.096 473.99C428.996 473.99 427.129 474.503 425.496 475.53C423.909 476.51 422.649 477.91 421.716 479.73C420.829 481.55 420.386 483.673 420.386 486.1C420.386 488.527 420.852 490.65 421.786 492.47C422.719 494.243 423.979 495.62 425.566 496.6C427.199 497.58 429.042 498.07 431.096 498.07ZM463.941 505V466.99H473.671V505H463.941ZM458.621 474.27V466.99H473.671V474.27H458.621ZM467.511 462.44C465.597 462.44 464.174 461.95 463.241 460.97C462.354 459.943 461.911 458.683 461.911 457.19C461.911 455.603 462.354 454.32 463.241 453.34C464.174 452.36 465.597 451.87 467.511 451.87C469.424 451.87 470.824 452.36 471.711 453.34C472.597 454.32 473.041 455.603 473.041 457.19C473.041 458.683 472.597 459.943 471.711 460.97C470.824 461.95 469.424 462.44 467.511 462.44ZM494.194 505.28V496.04H504.764C507.424 496.04 509.781 495.643 511.834 494.85C513.934 494.01 515.708 492.843 517.154 491.35C518.601 489.857 519.698 488.107 520.444 486.1C521.238 484.047 521.634 481.783 521.634 479.31C521.634 476.743 521.238 474.457 520.444 472.45C519.698 470.397 518.601 468.647 517.154 467.2C515.708 465.753 513.934 464.657 511.834 463.91C509.781 463.163 507.424 462.79 504.764 462.79H494.194V453.55H504.134C508.754 453.55 512.791 454.227 516.244 455.58C519.698 456.933 522.568 458.8 524.854 461.18C527.141 463.513 528.844 466.197 529.964 469.23C531.131 472.217 531.714 475.32 531.714 478.54V480.08C531.714 483.16 531.131 486.193 529.964 489.18C528.844 492.167 527.141 494.873 524.854 497.3C522.568 499.727 519.698 501.663 516.244 503.11C512.791 504.557 508.754 505.28 504.134 505.28H494.194ZM485.654 505.28V453.55H495.594V505.28H485.654ZM558.115 506.33C554.755 506.33 551.792 505.793 549.225 504.72C546.659 503.647 544.489 502.2 542.715 500.38C540.942 498.513 539.589 496.413 538.655 494.08C537.769 491.747 537.325 489.32 537.325 486.8V485.33C537.325 482.717 537.792 480.243 538.725 477.91C539.705 475.53 541.082 473.43 542.855 471.61C544.675 469.743 546.869 468.297 549.435 467.27C552.002 466.197 554.895 465.66 558.115 465.66C561.335 465.66 564.229 466.197 566.795 467.27C569.362 468.297 571.532 469.743 573.305 471.61C575.125 473.43 576.502 475.53 577.435 477.91C578.369 480.243 578.835 482.717 578.835 485.33V486.8C578.835 489.32 578.369 491.747 577.435 494.08C576.549 496.413 575.219 498.513 573.445 500.38C571.672 502.2 569.502 503.647 566.935 504.72C564.369 505.793 561.429 506.33 558.115 506.33ZM558.115 498C560.495 498 562.502 497.487 564.135 496.46C565.769 495.387 567.005 493.963 567.845 492.19C568.685 490.37 569.105 488.317 569.105 486.03C569.105 483.697 568.662 481.643 567.775 479.87C566.935 478.05 565.675 476.627 563.995 475.6C562.362 474.527 560.402 473.99 558.115 473.99C555.829 473.99 553.845 474.527 552.165 475.6C550.532 476.627 549.272 478.05 548.385 479.87C547.499 481.643 547.055 483.697 547.055 486.03C547.055 488.317 547.475 490.37 548.315 492.19C549.202 493.963 550.462 495.387 552.095 496.46C553.729 497.487 555.735 498 558.115 498ZM604.225 506.33C600.912 506.33 598.042 505.77 595.615 504.65C593.235 503.53 591.229 502.037 589.595 500.17C588.009 498.303 586.819 496.203 586.025 493.87C585.232 491.537 584.835 489.157 584.835 486.73V485.4C584.835 482.833 585.232 480.383 586.025 478.05C586.865 475.67 588.102 473.57 589.735 471.75C591.369 469.883 593.375 468.413 595.755 467.34C598.182 466.22 600.982 465.66 604.155 465.66C607.469 465.66 610.432 466.313 613.045 467.62C615.659 468.88 617.735 470.653 619.275 472.94C620.862 475.227 621.749 477.887 621.935 480.92H612.485C612.252 478.96 611.412 477.327 609.965 476.02C608.565 474.713 606.629 474.06 604.155 474.06C602.009 474.06 600.212 474.573 598.765 475.6C597.365 476.627 596.315 478.05 595.615 479.87C594.915 481.643 594.565 483.697 594.565 486.03C594.565 488.27 594.892 490.3 595.545 492.12C596.245 493.94 597.295 495.363 598.695 496.39C600.142 497.417 601.985 497.93 604.225 497.93C605.905 497.93 607.352 497.627 608.565 497.02C609.779 496.413 610.735 495.573 611.435 494.5C612.182 493.427 612.649 492.213 612.835 490.86H622.285C622.099 493.94 621.189 496.647 619.555 498.98C617.969 501.267 615.845 503.063 613.185 504.37C610.572 505.677 607.585 506.33 604.225 506.33Z" fill="#0B8FAC"/>
</svg>
