<svg width="448" height="106" viewBox="0 0 448 106" fill="none" xmlns="http://www.w3.org/2000/svg">
<g clip-path="url(#clip0_6_2630)">
<rect width="448" height="106" rx="30" fill="white"/>
<circle cx="46.792" cy="53.792" r="46.3421" fill="#0B8FAC"/>
<path d="M76.3432 48.5527C77.6726 49.0232 78.3678 50.4793 77.8973 51.8087L77.9026 51.8052L74.5614 61.2674C73.9422 63.014 72.7812 64.519 71.25 65.5581L54.3282 77.0418C53.3937 77.676 52.1263 77.4334 51.4921 76.4989L49.1989 73.1198C48.5647 72.1853 48.8073 70.9179 49.7419 70.2837L51.6848 68.9651L52.7656 65.4555C53.3156 63.6865 54.4498 62.1534 55.9862 61.1107L64.3442 55.4387C65.2787 54.8045 66.5461 55.0472 67.1803 55.9817C67.8145 56.9162 67.5718 58.1836 66.6373 58.8178L62.4135 61.6843C61.9488 61.9996 61.8267 62.6377 62.142 63.1024C62.4573 63.567 63.0954 63.6891 63.56 63.3738L69.9275 59.0526L73.0872 50.1069C73.5576 48.7775 75.0137 48.0823 76.3432 48.5527Z" fill="white"/>
<path d="M16.4104 48.5527C15.0809 49.0232 14.3858 50.4793 14.8562 51.8087L14.8509 51.8051L18.1922 61.2674C18.8114 63.014 19.9723 64.519 21.5035 65.5581L38.4254 77.0418C39.3599 77.676 40.6273 77.4334 41.2615 76.4989L43.5546 73.1198C44.1888 72.1852 43.9462 70.9179 43.0117 70.2836L41.0687 68.9651L39.988 65.4555C39.438 63.6865 38.3038 62.1534 36.7674 61.1107L28.4094 55.4387C27.4749 54.8045 26.2075 55.0472 25.5733 55.9817C24.9391 56.9162 25.1817 58.1836 26.1162 58.8178L30.3401 61.6843C30.8047 61.9996 30.9269 62.6377 30.6116 63.1023C30.2963 63.567 29.6581 63.6891 29.1935 63.3738L22.826 59.0526L19.6663 50.1069C19.1959 48.7774 17.7398 48.0823 16.4104 48.5527Z" fill="white"/>
<path fill-rule="evenodd" clip-rule="evenodd" d="M59.7838 33.7632C60.7312 34.7431 61.4888 35.909 62.0143 37.1956C62.5592 38.5346 62.8375 39.9565 62.8336 41.4199C62.8336 42.8003 62.567 44.2388 62.0378 45.7021C61.5988 46.9251 60.9598 48.1936 60.1483 49.4745C58.8626 51.5017 57.0946 53.6159 54.8994 55.7591C51.2577 59.3118 47.6591 61.7618 47.5062 61.8654L46.5771 62.4955C46.1655 62.7733 45.6363 62.7733 45.2247 62.4955L44.2957 61.8654C44.1428 61.7659 40.5402 59.3118 36.9024 55.7591C34.7072 53.6159 32.9393 51.5017 31.6535 49.4745C30.842 48.1936 30.207 46.9251 29.764 45.7021C29.2348 44.2388 28.9683 42.8003 28.9683 41.4199C28.9683 39.9565 29.2466 38.5346 29.7915 37.1956C30.3155 35.9082 31.0733 34.742 32.022 33.7632C32.9746 32.7765 34.0839 32.0013 35.3148 31.4624C36.5888 30.9028 37.9373 30.6209 39.329 30.6209C41.2615 30.6209 43.1471 31.1805 44.7857 32.2376C45.1777 32.4905 45.5501 32.7682 45.9029 33.0709C46.2557 32.7682 46.6281 32.4905 47.0201 32.2376C48.6587 31.1805 50.5442 30.6209 52.4768 30.6209C53.8543 30.6175 55.2188 30.9036 56.4909 31.4624C57.7178 31.9992 58.8356 32.7803 59.7838 33.7632ZM45.5542 47.4676V51.5843H47.5973V47.4676H51.714V45.4244H47.5973V41.3153H45.5542V45.4244H41.4451V47.4676H45.5542Z" fill="white"/>
<path d="M121.75 78V26.9H135.33L148.14 57.42H149.4L162.14 26.9H175.93V78H166.06V34.39L167.32 34.53L153.53 67.57H143.38L129.52 34.53L130.85 34.39V78H121.75ZM204.777 79.33C201.511 79.33 198.641 78.77 196.167 77.65C193.741 76.53 191.711 75.0367 190.077 73.17C188.491 71.2567 187.277 69.1333 186.437 66.8C185.644 64.4667 185.247 62.0867 185.247 59.66V58.33C185.247 55.81 185.644 53.3833 186.437 51.05C187.277 48.67 188.491 46.57 190.077 44.75C191.711 42.8833 193.717 41.4133 196.097 40.34C198.477 39.22 201.231 38.66 204.357 38.66C208.464 38.66 211.894 39.57 214.647 41.39C217.447 43.1633 219.547 45.52 220.947 48.46C222.347 51.3533 223.047 54.48 223.047 57.84V61.34H189.377V55.39H216.957L213.947 58.33C213.947 55.9033 213.597 53.8267 212.897 52.1C212.197 50.3733 211.124 49.0433 209.677 48.11C208.277 47.1767 206.504 46.71 204.357 46.71C202.211 46.71 200.391 47.2 198.897 48.18C197.404 49.16 196.261 50.5833 195.467 52.45C194.721 54.27 194.347 56.4633 194.347 59.03C194.347 61.41 194.721 63.5333 195.467 65.4C196.214 67.22 197.357 68.6667 198.897 69.74C200.437 70.7667 202.397 71.28 204.777 71.28C207.157 71.28 209.094 70.8133 210.587 69.88C212.081 68.9 213.037 67.71 213.457 66.31H222.417C221.857 68.9233 220.784 71.21 219.197 73.17C217.611 75.13 215.581 76.6467 213.107 77.72C210.681 78.7933 207.904 79.33 204.777 79.33ZM246.926 79.26C244.266 79.26 241.816 78.77 239.576 77.79C237.336 76.81 235.399 75.4333 233.766 73.66C232.132 71.8867 230.872 69.8333 229.986 67.5C229.099 65.12 228.656 62.5533 228.656 59.8V58.33C228.656 55.6233 229.076 53.08 229.916 50.7C230.802 48.32 232.016 46.2433 233.556 44.47C235.142 42.6967 237.032 41.32 239.226 40.34C241.466 39.3133 243.939 38.8 246.646 38.8C249.632 38.8 252.246 39.4533 254.486 40.76C256.772 42.02 258.592 43.9333 259.946 46.5C261.299 49.0667 262.046 52.2867 262.186 56.16L259.316 52.8V26.9H269.046V78H261.346V61.83H263.026C262.886 65.7033 262.092 68.9467 260.646 71.56C259.199 74.1267 257.286 76.0633 254.906 77.37C252.572 78.63 249.912 79.26 246.926 79.26ZM249.096 71.07C251.009 71.07 252.759 70.65 254.346 69.81C255.932 68.9233 257.192 67.6633 258.126 66.03C259.106 64.35 259.596 62.39 259.596 60.15V57.35C259.596 55.11 259.106 53.2433 258.126 51.75C257.146 50.21 255.862 49.0433 254.276 48.25C252.689 47.41 250.962 46.99 249.096 46.99C246.996 46.99 245.129 47.5033 243.496 48.53C241.909 49.51 240.649 50.91 239.716 52.73C238.829 54.55 238.386 56.6733 238.386 59.1C238.386 61.5267 238.852 63.65 239.786 65.47C240.719 67.2433 241.979 68.62 243.566 69.6C245.199 70.58 247.042 71.07 249.096 71.07ZM281.941 78V39.99H291.671V78H281.941ZM276.621 47.27V39.99H291.671V47.27H276.621ZM285.511 35.44C283.597 35.44 282.174 34.95 281.241 33.97C280.354 32.9433 279.911 31.6833 279.911 30.19C279.911 28.6033 280.354 27.32 281.241 26.34C282.174 25.36 283.597 24.87 285.511 24.87C287.424 24.87 288.824 25.36 289.711 26.34C290.597 27.32 291.041 28.6033 291.041 30.19C291.041 31.6833 290.597 32.9433 289.711 33.97C288.824 34.95 287.424 35.44 285.511 35.44ZM312.194 78.28V69.04H322.764C325.424 69.04 327.781 68.6433 329.834 67.85C331.934 67.01 333.708 65.8433 335.154 64.35C336.601 62.8567 337.698 61.1067 338.444 59.1C339.238 57.0467 339.634 54.7833 339.634 52.31C339.634 49.7433 339.238 47.4567 338.444 45.45C337.698 43.3967 336.601 41.6467 335.154 40.2C333.708 38.7533 331.934 37.6567 329.834 36.91C327.781 36.1633 325.424 35.79 322.764 35.79H312.194V26.55H322.134C326.754 26.55 330.791 27.2267 334.244 28.58C337.698 29.9333 340.568 31.8 342.854 34.18C345.141 36.5133 346.844 39.1967 347.964 42.23C349.131 45.2167 349.714 48.32 349.714 51.54V53.08C349.714 56.16 349.131 59.1933 347.964 62.18C346.844 65.1667 345.141 67.8733 342.854 70.3C340.568 72.7267 337.698 74.6633 334.244 76.11C330.791 77.5567 326.754 78.28 322.134 78.28H312.194ZM303.654 78.28V26.55H313.594V78.28H303.654ZM376.115 79.33C372.755 79.33 369.792 78.7933 367.225 77.72C364.659 76.6467 362.489 75.2 360.715 73.38C358.942 71.5133 357.589 69.4133 356.655 67.08C355.769 64.7467 355.325 62.32 355.325 59.8V58.33C355.325 55.7167 355.792 53.2433 356.725 50.91C357.705 48.53 359.082 46.43 360.855 44.61C362.675 42.7433 364.869 41.2967 367.435 40.27C370.002 39.1967 372.895 38.66 376.115 38.66C379.335 38.66 382.229 39.1967 384.795 40.27C387.362 41.2967 389.532 42.7433 391.305 44.61C393.125 46.43 394.502 48.53 395.435 50.91C396.369 53.2433 396.835 55.7167 396.835 58.33V59.8C396.835 62.32 396.369 64.7467 395.435 67.08C394.549 69.4133 393.219 71.5133 391.445 73.38C389.672 75.2 387.502 76.6467 384.935 77.72C382.369 78.7933 379.429 79.33 376.115 79.33ZM376.115 71C378.495 71 380.502 70.4867 382.135 69.46C383.769 68.3867 385.005 66.9633 385.845 65.19C386.685 63.37 387.105 61.3167 387.105 59.03C387.105 56.6967 386.662 54.6433 385.775 52.87C384.935 51.05 383.675 49.6267 381.995 48.6C380.362 47.5267 378.402 46.99 376.115 46.99C373.829 46.99 371.845 47.5267 370.165 48.6C368.532 49.6267 367.272 51.05 366.385 52.87C365.499 54.6433 365.055 56.6967 365.055 59.03C365.055 61.3167 365.475 63.37 366.315 65.19C367.202 66.9633 368.462 68.3867 370.095 69.46C371.729 70.4867 373.735 71 376.115 71ZM422.225 79.33C418.912 79.33 416.042 78.77 413.615 77.65C411.235 76.53 409.229 75.0367 407.595 73.17C406.009 71.3033 404.819 69.2033 404.025 66.87C403.232 64.5367 402.835 62.1567 402.835 59.73V58.4C402.835 55.8333 403.232 53.3833 404.025 51.05C404.865 48.67 406.102 46.57 407.735 44.75C409.369 42.8833 411.375 41.4133 413.755 40.34C416.182 39.22 418.982 38.66 422.155 38.66C425.469 38.66 428.432 39.3133 431.045 40.62C433.659 41.88 435.735 43.6533 437.275 45.94C438.862 48.2267 439.749 50.8867 439.935 53.92H430.485C430.252 51.96 429.412 50.3267 427.965 49.02C426.565 47.7133 424.629 47.06 422.155 47.06C420.009 47.06 418.212 47.5733 416.765 48.6C415.365 49.6267 414.315 51.05 413.615 52.87C412.915 54.6433 412.565 56.6967 412.565 59.03C412.565 61.27 412.892 63.3 413.545 65.12C414.245 66.94 415.295 68.3633 416.695 69.39C418.142 70.4167 419.985 70.93 422.225 70.93C423.905 70.93 425.352 70.6267 426.565 70.02C427.779 69.4133 428.735 68.5733 429.435 67.5C430.182 66.4267 430.649 65.2133 430.835 63.86H440.285C440.099 66.94 439.189 69.6467 437.555 71.98C435.969 74.2667 433.845 76.0633 431.185 77.37C428.572 78.6767 425.585 79.33 422.225 79.33Z" fill="#0B8FAC"/>
</g>
<defs>
<clipPath id="clip0_6_2630">
<rect width="448" height="106" rx="30" fill="white"/>
</clipPath>
</defs>
</svg>
