<svg width="547" height="175" viewBox="0 0 547 175" fill="none" xmlns="http://www.w3.org/2000/svg">
<rect width="547" height="175" rx="30" fill="#0B8FAC"/>
<circle cx="84.792" cy="84.792" r="46.3421" fill="white"/>
<path d="M114.343 79.5526C115.673 80.0231 116.368 81.4792 115.897 82.8086L115.903 82.805L112.561 92.2673C111.942 94.0139 110.781 95.5189 109.25 96.558L92.3282 108.042C91.3937 108.676 90.1263 108.433 89.4921 107.499L87.1989 104.12C86.5647 103.185 86.8073 101.918 87.7419 101.284L89.6848 99.965L90.7656 96.4554C91.3156 94.6864 92.4498 93.1533 93.9862 92.1106L102.344 86.4386C103.279 85.8044 104.546 86.047 105.18 86.9816C105.814 87.9161 105.572 89.1835 104.637 89.8177L100.413 92.6842C99.9488 92.9995 99.8267 93.6376 100.142 94.1022C100.457 94.5669 101.095 94.689 101.56 94.3737L107.928 90.0525L111.087 81.1068C111.558 79.7773 113.014 79.0822 114.343 79.5526Z" fill="#0B8FAC"/>
<path d="M54.4104 79.5526C53.0809 80.023 52.3858 81.4792 52.8562 82.8086L52.8509 82.805L56.1922 92.2673C56.8114 94.0138 57.9723 95.5189 59.5035 96.558L76.4254 108.042C77.3599 108.676 78.6273 108.433 79.2615 107.499L81.5546 104.12C82.1888 103.185 81.9462 101.918 81.0117 101.284L79.0687 99.965L77.988 96.4554C77.438 94.6864 76.3038 93.1533 74.7674 92.1106L66.4094 86.4386C65.4749 85.8044 64.2075 86.047 63.5733 86.9816C62.9391 87.9161 63.1817 89.1835 64.1162 89.8177L68.3401 92.6842C68.8047 92.9995 68.9269 93.6376 68.6116 94.1022C68.2963 94.5668 67.6581 94.689 67.1935 94.3737L60.826 90.0525L57.6663 81.1068C57.1959 79.7773 55.7398 79.0822 54.4104 79.5526Z" fill="#0B8FAC"/>
<path fill-rule="evenodd" clip-rule="evenodd" d="M97.7838 64.7631C98.7312 65.7431 99.4888 66.909 100.014 68.1956C100.559 69.5346 100.837 70.9565 100.834 72.4198C100.834 73.8003 100.567 75.2388 100.038 76.7021C99.5988 77.9251 98.9598 79.1936 98.1483 80.4745C96.8626 82.5017 95.0946 84.6159 92.8994 86.7591C89.2577 90.3118 85.6591 92.7617 85.5062 92.8654L84.5771 93.4955C84.1655 93.7732 83.6363 93.7732 83.2247 93.4955L82.2957 92.8654C82.1428 92.7659 78.5402 90.3118 74.9024 86.7591C72.7072 84.6159 70.9393 82.5017 69.6535 80.4745C68.842 79.1936 68.207 77.9251 67.764 76.7021C67.2348 75.2388 66.9683 73.8003 66.9683 72.4198C66.9683 70.9565 67.2466 69.5346 67.7915 68.1956C68.3155 66.9082 69.0733 65.742 70.022 64.7631C70.9746 63.7765 72.0839 63.0013 73.3148 62.4624C74.5888 61.9028 75.9373 61.6209 77.329 61.6209C79.2615 61.6209 81.1471 62.1805 82.7857 63.2376C83.1777 63.4905 83.5501 63.7682 83.9029 64.0708C84.2557 63.7682 84.6281 63.4905 85.0201 63.2376C86.6587 62.1805 88.5442 61.6209 90.4768 61.6209C91.8543 61.6175 93.2188 61.9036 94.4909 62.4624C95.7178 62.9992 96.8356 63.7803 97.7838 64.7631ZM83.5542 78.4676V82.5843H85.5973V78.4676H89.714V76.4244H85.5973V72.3153H83.5542V76.4244H79.4451V78.4676H83.5542Z" fill="#0B8FAC"/>
<path d="M159.75 109V57.9H173.33L186.14 88.42H187.4L200.14 57.9H213.93V109H204.06V65.39L205.32 65.53L191.53 98.57H181.38L167.52 65.53L168.85 65.39V109H159.75ZM242.777 110.33C239.511 110.33 236.641 109.77 234.167 108.65C231.741 107.53 229.711 106.037 228.077 104.17C226.491 102.257 225.277 100.133 224.437 97.8C223.644 95.4667 223.247 93.0867 223.247 90.66V89.33C223.247 86.81 223.644 84.3833 224.437 82.05C225.277 79.67 226.491 77.57 228.077 75.75C229.711 73.8833 231.717 72.4133 234.097 71.34C236.477 70.22 239.231 69.66 242.357 69.66C246.464 69.66 249.894 70.57 252.647 72.39C255.447 74.1633 257.547 76.52 258.947 79.46C260.347 82.3533 261.047 85.48 261.047 88.84V92.34H227.377V86.39H254.957L251.947 89.33C251.947 86.9033 251.597 84.8267 250.897 83.1C250.197 81.3733 249.124 80.0433 247.677 79.11C246.277 78.1767 244.504 77.71 242.357 77.71C240.211 77.71 238.391 78.2 236.897 79.18C235.404 80.16 234.261 81.5833 233.467 83.45C232.721 85.27 232.347 87.4633 232.347 90.03C232.347 92.41 232.721 94.5333 233.467 96.4C234.214 98.22 235.357 99.6667 236.897 100.74C238.437 101.767 240.397 102.28 242.777 102.28C245.157 102.28 247.094 101.813 248.587 100.88C250.081 99.9 251.037 98.71 251.457 97.31H260.417C259.857 99.9233 258.784 102.21 257.197 104.17C255.611 106.13 253.581 107.647 251.107 108.72C248.681 109.793 245.904 110.33 242.777 110.33ZM284.926 110.26C282.266 110.26 279.816 109.77 277.576 108.79C275.336 107.81 273.399 106.433 271.766 104.66C270.132 102.887 268.872 100.833 267.986 98.5C267.099 96.12 266.656 93.5533 266.656 90.8V89.33C266.656 86.6233 267.076 84.08 267.916 81.7C268.802 79.32 270.016 77.2433 271.556 75.47C273.142 73.6967 275.032 72.32 277.226 71.34C279.466 70.3133 281.939 69.8 284.646 69.8C287.632 69.8 290.246 70.4533 292.486 71.76C294.772 73.02 296.592 74.9333 297.946 77.5C299.299 80.0667 300.046 83.2867 300.186 87.16L297.316 83.8V57.9H307.046V109H299.346V92.83H301.026C300.886 96.7033 300.092 99.9467 298.646 102.56C297.199 105.127 295.286 107.063 292.906 108.37C290.572 109.63 287.912 110.26 284.926 110.26ZM287.096 102.07C289.009 102.07 290.759 101.65 292.346 100.81C293.932 99.9233 295.192 98.6633 296.126 97.03C297.106 95.35 297.596 93.39 297.596 91.15V88.35C297.596 86.11 297.106 84.2433 296.126 82.75C295.146 81.21 293.862 80.0433 292.276 79.25C290.689 78.41 288.962 77.99 287.096 77.99C284.996 77.99 283.129 78.5033 281.496 79.53C279.909 80.51 278.649 81.91 277.716 83.73C276.829 85.55 276.386 87.6733 276.386 90.1C276.386 92.5267 276.852 94.65 277.786 96.47C278.719 98.2433 279.979 99.62 281.566 100.6C283.199 101.58 285.042 102.07 287.096 102.07ZM319.941 109V70.99H329.671V109H319.941ZM314.621 78.27V70.99H329.671V78.27H314.621ZM323.511 66.44C321.597 66.44 320.174 65.95 319.241 64.97C318.354 63.9433 317.911 62.6833 317.911 61.19C317.911 59.6033 318.354 58.32 319.241 57.34C320.174 56.36 321.597 55.87 323.511 55.87C325.424 55.87 326.824 56.36 327.711 57.34C328.597 58.32 329.041 59.6033 329.041 61.19C329.041 62.6833 328.597 63.9433 327.711 64.97C326.824 65.95 325.424 66.44 323.511 66.44ZM350.194 109.28V100.04H360.764C363.424 100.04 365.781 99.6433 367.834 98.85C369.934 98.01 371.708 96.8433 373.154 95.35C374.601 93.8567 375.698 92.1067 376.444 90.1C377.238 88.0467 377.634 85.7833 377.634 83.31C377.634 80.7433 377.238 78.4567 376.444 76.45C375.698 74.3967 374.601 72.6467 373.154 71.2C371.708 69.7533 369.934 68.6567 367.834 67.91C365.781 67.1633 363.424 66.79 360.764 66.79H350.194V57.55H360.134C364.754 57.55 368.791 58.2267 372.244 59.58C375.698 60.9333 378.568 62.8 380.854 65.18C383.141 67.5133 384.844 70.1967 385.964 73.23C387.131 76.2167 387.714 79.32 387.714 82.54V84.08C387.714 87.16 387.131 90.1933 385.964 93.18C384.844 96.1667 383.141 98.8733 380.854 101.3C378.568 103.727 375.698 105.663 372.244 107.11C368.791 108.557 364.754 109.28 360.134 109.28H350.194ZM341.654 109.28V57.55H351.594V109.28H341.654ZM414.115 110.33C410.755 110.33 407.792 109.793 405.225 108.72C402.659 107.647 400.489 106.2 398.715 104.38C396.942 102.513 395.589 100.413 394.655 98.08C393.769 95.7467 393.325 93.32 393.325 90.8V89.33C393.325 86.7167 393.792 84.2433 394.725 81.91C395.705 79.53 397.082 77.43 398.855 75.61C400.675 73.7433 402.869 72.2967 405.435 71.27C408.002 70.1967 410.895 69.66 414.115 69.66C417.335 69.66 420.229 70.1967 422.795 71.27C425.362 72.2967 427.532 73.7433 429.305 75.61C431.125 77.43 432.502 79.53 433.435 81.91C434.369 84.2433 434.835 86.7167 434.835 89.33V90.8C434.835 93.32 434.369 95.7467 433.435 98.08C432.549 100.413 431.219 102.513 429.445 104.38C427.672 106.2 425.502 107.647 422.935 108.72C420.369 109.793 417.429 110.33 414.115 110.33ZM414.115 102C416.495 102 418.502 101.487 420.135 100.46C421.769 99.3867 423.005 97.9633 423.845 96.19C424.685 94.37 425.105 92.3167 425.105 90.03C425.105 87.6967 424.662 85.6433 423.775 83.87C422.935 82.05 421.675 80.6267 419.995 79.6C418.362 78.5267 416.402 77.99 414.115 77.99C411.829 77.99 409.845 78.5267 408.165 79.6C406.532 80.6267 405.272 82.05 404.385 83.87C403.499 85.6433 403.055 87.6967 403.055 90.03C403.055 92.3167 403.475 94.37 404.315 96.19C405.202 97.9633 406.462 99.3867 408.095 100.46C409.729 101.487 411.735 102 414.115 102ZM460.225 110.33C456.912 110.33 454.042 109.77 451.615 108.65C449.235 107.53 447.229 106.037 445.595 104.17C444.009 102.303 442.819 100.203 442.025 97.87C441.232 95.5367 440.835 93.1567 440.835 90.73V89.4C440.835 86.8333 441.232 84.3833 442.025 82.05C442.865 79.67 444.102 77.57 445.735 75.75C447.369 73.8833 449.375 72.4133 451.755 71.34C454.182 70.22 456.982 69.66 460.155 69.66C463.469 69.66 466.432 70.3133 469.045 71.62C471.659 72.88 473.735 74.6533 475.275 76.94C476.862 79.2267 477.749 81.8867 477.935 84.92H468.485C468.252 82.96 467.412 81.3267 465.965 80.02C464.565 78.7133 462.629 78.06 460.155 78.06C458.009 78.06 456.212 78.5733 454.765 79.6C453.365 80.6267 452.315 82.05 451.615 83.87C450.915 85.6433 450.565 87.6967 450.565 90.03C450.565 92.27 450.892 94.3 451.545 96.12C452.245 97.94 453.295 99.3633 454.695 100.39C456.142 101.417 457.985 101.93 460.225 101.93C461.905 101.93 463.352 101.627 464.565 101.02C465.779 100.413 466.735 99.5733 467.435 98.5C468.182 97.4267 468.649 96.2133 468.835 94.86H478.285C478.099 97.94 477.189 100.647 475.555 102.98C473.969 105.267 471.845 107.063 469.185 108.37C466.572 109.677 463.585 110.33 460.225 110.33Z" fill="white"/>
</svg>
